<mxfile host="app.diagrams.net" agent="Mozilla/5.0 (Windows NT 10.0; Win64; x64) AppleWebKit/537.36 (KHTML, like Gecko) Chrome/135.0.0.0 Safari/537.36" version="26.2.13">
  <diagram id="C5RBs43oDa-KdzZeNtuy" name="Page-1">
    <mxGraphModel dx="1228" dy="1789" grid="1" gridSize="10" guides="1" tooltips="1" connect="1" arrows="1" fold="1" page="1" pageScale="1" pageWidth="827" pageHeight="1169" math="0" shadow="0">
      <root>
        <mxCell id="WIyWlLk6GJQsqaUBKTNV-0" />
        <mxCell id="WIyWlLk6GJQsqaUBKTNV-1" parent="WIyWlLk6GJQsqaUBKTNV-0" />
        <mxCell id="gBLYM8MqTasau3zO4Ovv-2" value="&lt;font style=&quot;font-size: 18px;&quot;&gt; Load &amp;amp; Preprocess Data&lt;/font&gt;" style="rounded=1;whiteSpace=wrap;html=1;absoluteArcSize=1;arcSize=14;strokeWidth=2;" vertex="1" parent="WIyWlLk6GJQsqaUBKTNV-1">
          <mxGeometry x="304" y="-730" width="220" height="50" as="geometry" />
        </mxCell>
        <mxCell id="gBLYM8MqTasau3zO4Ovv-3" value="" style="endArrow=classic;html=1;rounded=0;exitX=0.5;exitY=1;exitDx=0;exitDy=0;exitPerimeter=0;entryX=0.5;entryY=0;entryDx=0;entryDy=0;" edge="1" parent="WIyWlLk6GJQsqaUBKTNV-1" source="gBLYM8MqTasau3zO4Ovv-8" target="gBLYM8MqTasau3zO4Ovv-2">
          <mxGeometry width="50" height="50" relative="1" as="geometry">
            <mxPoint x="524" y="-490" as="sourcePoint" />
            <mxPoint x="574" y="-540" as="targetPoint" />
          </mxGeometry>
        </mxCell>
        <mxCell id="gBLYM8MqTasau3zO4Ovv-4" style="edgeStyle=orthogonalEdgeStyle;rounded=0;orthogonalLoop=1;jettySize=auto;html=1;exitX=0.5;exitY=1;exitDx=0;exitDy=0;" edge="1" parent="WIyWlLk6GJQsqaUBKTNV-1" source="gBLYM8MqTasau3zO4Ovv-2" target="gBLYM8MqTasau3zO4Ovv-2">
          <mxGeometry relative="1" as="geometry" />
        </mxCell>
        <mxCell id="gBLYM8MqTasau3zO4Ovv-6" value="&lt;font style=&quot;font-size: 18px;&quot;&gt;Splitting Features &amp;amp; Labels&lt;/font&gt;" style="rounded=1;whiteSpace=wrap;html=1;absoluteArcSize=1;arcSize=14;strokeWidth=2;" vertex="1" parent="WIyWlLk6GJQsqaUBKTNV-1">
          <mxGeometry x="291" y="-640" width="246" height="50" as="geometry" />
        </mxCell>
        <mxCell id="gBLYM8MqTasau3zO4Ovv-7" value="" style="endArrow=classic;html=1;rounded=0;exitX=0.5;exitY=1;exitDx=0;exitDy=0;entryX=0.5;entryY=0;entryDx=0;entryDy=0;" edge="1" parent="WIyWlLk6GJQsqaUBKTNV-1" source="gBLYM8MqTasau3zO4Ovv-2" target="gBLYM8MqTasau3zO4Ovv-6">
          <mxGeometry width="50" height="50" relative="1" as="geometry">
            <mxPoint x="524" y="-490" as="sourcePoint" />
            <mxPoint x="574" y="-540" as="targetPoint" />
          </mxGeometry>
        </mxCell>
        <mxCell id="gBLYM8MqTasau3zO4Ovv-9" value="" style="endArrow=classic;html=1;rounded=0;exitX=0.5;exitY=1;exitDx=0;exitDy=0;exitPerimeter=0;entryX=0.5;entryY=0;entryDx=0;entryDy=0;" edge="1" parent="WIyWlLk6GJQsqaUBKTNV-1" source="gBLYM8MqTasau3zO4Ovv-28" target="gBLYM8MqTasau3zO4Ovv-8">
          <mxGeometry width="50" height="50" relative="1" as="geometry">
            <mxPoint x="414" y="-860" as="sourcePoint" />
            <mxPoint x="414" y="-670" as="targetPoint" />
          </mxGeometry>
        </mxCell>
        <mxCell id="gBLYM8MqTasau3zO4Ovv-8" value="&lt;font style=&quot;font-size: 18px;&quot;&gt;Importing Libraries&lt;/font&gt;" style="rounded=1;whiteSpace=wrap;html=1;absoluteArcSize=1;arcSize=14;strokeWidth=2;" vertex="1" parent="WIyWlLk6GJQsqaUBKTNV-1">
          <mxGeometry x="314" y="-820" width="200" height="50" as="geometry" />
        </mxCell>
        <mxCell id="gBLYM8MqTasau3zO4Ovv-10" value="&lt;font style=&quot;font-size: 18px;&quot;&gt;&amp;nbsp;Train-Test Split&lt;/font&gt;" style="rounded=1;whiteSpace=wrap;html=1;absoluteArcSize=1;arcSize=14;strokeWidth=2;" vertex="1" parent="WIyWlLk6GJQsqaUBKTNV-1">
          <mxGeometry x="300" y="-550" width="230" height="40" as="geometry" />
        </mxCell>
        <mxCell id="gBLYM8MqTasau3zO4Ovv-11" value="&lt;font style=&quot;font-size: 18px;&quot;&gt;&amp;nbsp;Model Training with Caching&lt;/font&gt;" style="rounded=1;whiteSpace=wrap;html=1;absoluteArcSize=1;arcSize=14;strokeWidth=2;" vertex="1" parent="WIyWlLk6GJQsqaUBKTNV-1">
          <mxGeometry x="299" y="-460" width="230" height="60" as="geometry" />
        </mxCell>
        <mxCell id="gBLYM8MqTasau3zO4Ovv-12" value="&lt;font style=&quot;font-size: 18px;&quot;&gt;Accuracy Calculation&lt;/font&gt;" style="rounded=1;whiteSpace=wrap;html=1;absoluteArcSize=1;arcSize=14;strokeWidth=2;" vertex="1" parent="WIyWlLk6GJQsqaUBKTNV-1">
          <mxGeometry x="320" y="-350" width="200" height="50" as="geometry" />
        </mxCell>
        <mxCell id="gBLYM8MqTasau3zO4Ovv-13" value="&lt;font style=&quot;font-size: 18px;&quot;&gt;UI - Title &amp;amp; Background Image&lt;/font&gt;" style="rounded=1;whiteSpace=wrap;html=1;absoluteArcSize=1;arcSize=14;strokeWidth=2;" vertex="1" parent="WIyWlLk6GJQsqaUBKTNV-1">
          <mxGeometry x="310" y="-240" width="210" height="60" as="geometry" />
        </mxCell>
        <mxCell id="gBLYM8MqTasau3zO4Ovv-14" value="&lt;font style=&quot;font-size: 18px;&quot;&gt;Feature Descriptions&lt;/font&gt;" style="rounded=1;whiteSpace=wrap;html=1;absoluteArcSize=1;arcSize=14;strokeWidth=2;" vertex="1" parent="WIyWlLk6GJQsqaUBKTNV-1">
          <mxGeometry x="300" y="-120" width="230" height="50" as="geometry" />
        </mxCell>
        <mxCell id="gBLYM8MqTasau3zO4Ovv-15" value="&lt;font style=&quot;font-size: 18px;&quot;&gt;Input Form for Patient Data&lt;/font&gt;" style="rounded=1;whiteSpace=wrap;html=1;absoluteArcSize=1;arcSize=14;strokeWidth=2;" vertex="1" parent="WIyWlLk6GJQsqaUBKTNV-1">
          <mxGeometry x="287" y="-20" width="254" height="50" as="geometry" />
        </mxCell>
        <mxCell id="gBLYM8MqTasau3zO4Ovv-16" value="&lt;font style=&quot;font-size: 18px;&quot;&gt;Make Prediction&lt;/font&gt;" style="rounded=1;whiteSpace=wrap;html=1;absoluteArcSize=1;arcSize=14;strokeWidth=2;" vertex="1" parent="WIyWlLk6GJQsqaUBKTNV-1">
          <mxGeometry x="319" y="80" width="190" height="40" as="geometry" />
        </mxCell>
        <mxCell id="gBLYM8MqTasau3zO4Ovv-17" value="&lt;font style=&quot;font-size: 18px;&quot;&gt;Show Model Accuracy&lt;/font&gt;" style="rounded=1;whiteSpace=wrap;html=1;absoluteArcSize=1;arcSize=14;strokeWidth=2;" vertex="1" parent="WIyWlLk6GJQsqaUBKTNV-1">
          <mxGeometry x="300" y="180" width="230" height="50" as="geometry" />
        </mxCell>
        <mxCell id="gBLYM8MqTasau3zO4Ovv-18" value="" style="endArrow=classic;html=1;rounded=0;exitX=0.5;exitY=1;exitDx=0;exitDy=0;entryX=0.5;entryY=0;entryDx=0;entryDy=0;" edge="1" parent="WIyWlLk6GJQsqaUBKTNV-1" source="gBLYM8MqTasau3zO4Ovv-6" target="gBLYM8MqTasau3zO4Ovv-10">
          <mxGeometry width="50" height="50" relative="1" as="geometry">
            <mxPoint x="390" y="-500" as="sourcePoint" />
            <mxPoint x="440" y="-550" as="targetPoint" />
          </mxGeometry>
        </mxCell>
        <mxCell id="gBLYM8MqTasau3zO4Ovv-19" value="" style="endArrow=classic;html=1;rounded=0;exitX=0.5;exitY=1;exitDx=0;exitDy=0;entryX=0.466;entryY=-0.004;entryDx=0;entryDy=0;entryPerimeter=0;" edge="1" parent="WIyWlLk6GJQsqaUBKTNV-1" source="gBLYM8MqTasau3zO4Ovv-11" target="gBLYM8MqTasau3zO4Ovv-12">
          <mxGeometry width="50" height="50" relative="1" as="geometry">
            <mxPoint x="390" y="-300" as="sourcePoint" />
            <mxPoint x="440" y="-350" as="targetPoint" />
          </mxGeometry>
        </mxCell>
        <mxCell id="gBLYM8MqTasau3zO4Ovv-20" value="" style="endArrow=classic;html=1;rounded=0;exitX=0.5;exitY=1;exitDx=0;exitDy=0;entryX=0.5;entryY=0;entryDx=0;entryDy=0;" edge="1" parent="WIyWlLk6GJQsqaUBKTNV-1" source="gBLYM8MqTasau3zO4Ovv-10" target="gBLYM8MqTasau3zO4Ovv-11">
          <mxGeometry width="50" height="50" relative="1" as="geometry">
            <mxPoint x="390" y="-300" as="sourcePoint" />
            <mxPoint x="440" y="-350" as="targetPoint" />
          </mxGeometry>
        </mxCell>
        <mxCell id="gBLYM8MqTasau3zO4Ovv-21" value="" style="endArrow=classic;html=1;rounded=0;exitX=0.466;exitY=1.02;exitDx=0;exitDy=0;exitPerimeter=0;" edge="1" parent="WIyWlLk6GJQsqaUBKTNV-1" source="gBLYM8MqTasau3zO4Ovv-12" target="gBLYM8MqTasau3zO4Ovv-13">
          <mxGeometry width="50" height="50" relative="1" as="geometry">
            <mxPoint x="390" y="-100" as="sourcePoint" />
            <mxPoint x="440" y="-150" as="targetPoint" />
          </mxGeometry>
        </mxCell>
        <mxCell id="gBLYM8MqTasau3zO4Ovv-22" value="" style="endArrow=classic;html=1;rounded=0;exitX=0.5;exitY=1;exitDx=0;exitDy=0;entryX=0.5;entryY=0;entryDx=0;entryDy=0;" edge="1" parent="WIyWlLk6GJQsqaUBKTNV-1" source="gBLYM8MqTasau3zO4Ovv-13" target="gBLYM8MqTasau3zO4Ovv-14">
          <mxGeometry width="50" height="50" relative="1" as="geometry">
            <mxPoint x="390" y="-100" as="sourcePoint" />
            <mxPoint x="440" y="-150" as="targetPoint" />
          </mxGeometry>
        </mxCell>
        <mxCell id="gBLYM8MqTasau3zO4Ovv-23" value="" style="endArrow=classic;html=1;rounded=0;exitX=0.5;exitY=1;exitDx=0;exitDy=0;entryX=0.5;entryY=0;entryDx=0;entryDy=0;" edge="1" parent="WIyWlLk6GJQsqaUBKTNV-1" source="gBLYM8MqTasau3zO4Ovv-14" target="gBLYM8MqTasau3zO4Ovv-15">
          <mxGeometry width="50" height="50" relative="1" as="geometry">
            <mxPoint x="390" y="100" as="sourcePoint" />
            <mxPoint x="440" y="50" as="targetPoint" />
          </mxGeometry>
        </mxCell>
        <mxCell id="gBLYM8MqTasau3zO4Ovv-24" value="" style="endArrow=classic;html=1;rounded=0;exitX=0.5;exitY=1;exitDx=0;exitDy=0;entryX=0.5;entryY=0;entryDx=0;entryDy=0;" edge="1" parent="WIyWlLk6GJQsqaUBKTNV-1" source="gBLYM8MqTasau3zO4Ovv-15" target="gBLYM8MqTasau3zO4Ovv-16">
          <mxGeometry width="50" height="50" relative="1" as="geometry">
            <mxPoint x="390" y="100" as="sourcePoint" />
            <mxPoint x="440" y="50" as="targetPoint" />
          </mxGeometry>
        </mxCell>
        <mxCell id="gBLYM8MqTasau3zO4Ovv-25" value="" style="endArrow=classic;html=1;rounded=0;entryX=0.5;entryY=0;entryDx=0;entryDy=0;exitX=0.5;exitY=1;exitDx=0;exitDy=0;" edge="1" parent="WIyWlLk6GJQsqaUBKTNV-1" source="gBLYM8MqTasau3zO4Ovv-16" target="gBLYM8MqTasau3zO4Ovv-17">
          <mxGeometry width="50" height="50" relative="1" as="geometry">
            <mxPoint x="390" y="100" as="sourcePoint" />
            <mxPoint x="440" y="50" as="targetPoint" />
          </mxGeometry>
        </mxCell>
        <mxCell id="gBLYM8MqTasau3zO4Ovv-26" value="&lt;div&gt;&lt;font style=&quot;font-size: 18px;&quot;&gt;End&lt;/font&gt;&lt;/div&gt;" style="strokeWidth=2;html=1;shape=mxgraph.flowchart.terminator;whiteSpace=wrap;" vertex="1" parent="WIyWlLk6GJQsqaUBKTNV-1">
          <mxGeometry x="364" y="290" width="100" height="40" as="geometry" />
        </mxCell>
        <mxCell id="gBLYM8MqTasau3zO4Ovv-27" value="" style="endArrow=classic;html=1;rounded=0;entryX=0.5;entryY=0;entryDx=0;entryDy=0;entryPerimeter=0;" edge="1" parent="WIyWlLk6GJQsqaUBKTNV-1" target="gBLYM8MqTasau3zO4Ovv-26">
          <mxGeometry width="50" height="50" relative="1" as="geometry">
            <mxPoint x="415" y="232" as="sourcePoint" />
            <mxPoint x="590" y="230" as="targetPoint" />
          </mxGeometry>
        </mxCell>
        <mxCell id="gBLYM8MqTasau3zO4Ovv-28" value="&lt;font style=&quot;font-size: 18px;&quot;&gt;Start&lt;/font&gt;" style="strokeWidth=2;html=1;shape=mxgraph.flowchart.start_1;whiteSpace=wrap;" vertex="1" parent="WIyWlLk6GJQsqaUBKTNV-1">
          <mxGeometry x="363" y="-930" width="100" height="60" as="geometry" />
        </mxCell>
      </root>
    </mxGraphModel>
  </diagram>
</mxfile>
